<svg xmlns="http://www.w3.org/2000/svg" viewBox="0 0 110 110" width="100%" height="100%">
  <path fill="#3776ab" d="M 55 2 C 25.7 2 27.5 14.7 27.5 14.7 L 27.6 27.8 L 55.4 27.8 L 55.4 31.7 L 16.5 31.7 C 16.5 31.7 2 30 2 59.3 C 2 88.6 14.3 87 14.3 87 L 25.2 87 L 25.2 71.7 C 25.2 71.7 24.3 53.6 42.4 53.6 L 70.2 53.6 C 70.2 53.6 87.9 53.6 87.9 36 L 87.9 15.3 C 87.9 15.3 89.2 2 55 2 Z M 41.1 11.4 C 43.6 11.4 45.6 13.4 45.6 15.9 C 45.6 18.4 43.6 20.4 41.1 20.4 C 38.6 20.4 36.6 18.4 36.6 15.9 C 36.6 13.4 38.6 11.4 41.1 11.4 Z"/>
  <path fill="#ffd343" d="M 55 108 C 84.3 108 82.5 95.3 82.5 95.3 L 82.4 82.2 L 54.6 82.2 L 54.6 78.3 L 93.5 78.3 C 93.5 78.3 108 80 108 50.7 C 108 21.4 95.7 23 95.7 23 L 84.8 23 L 84.8 38.3 C 84.8 38.3 85.7 56.4 67.6 56.4 L 39.8 56.4 C 39.8 56.4 22.1 56.4 22.1 74 L 22.1 94.7 C 22.1 94.7 20.8 108 55 108 Z M 68.9 98.6 C 66.4 98.6 64.4 96.6 64.4 94.1 C 64.4 91.6 66.4 89.6 68.9 89.6 C 71.4 89.6 73.4 91.6 73.4 94.1 C 73.4 96.6 71.4 98.6 68.9 98.6 Z"/>
</svg>
