<svg xmlns="http://www.w3.org/2000/svg" viewBox="0 0 24 24" width="100%" height="100%">
  <path fill="#2496ed" d="M13.983 11.078h2.119c.102 0 .186-.083.186-.185V8.774c0-.102-.084-.186-.186-.186h-2.119c-.103 0-.186.084-.186.186v2.119c0 .102.083.185.186.185m-2.954 0h2.12c.102 0 .185-.083.185-.185V8.774c0-.102-.083-.186-.185-.186h-2.12c-.102 0-.185.084-.185.186v2.119c0 .102.083.185.185.185m-2.935 0h2.119c.102 0 .185-.083.185-.185V8.774c0-.102-.083-.186-.185-.186H8.094c-.102 0-.185.084-.185.186v2.119c0 .102.083.185.185.185m-2.936 0h2.12c.102 0 .185-.083.185-.185V8.774c0-.102-.083-.186-.185-.186h-2.12c-.102 0-.186.084-.186.186v2.119c0 .102.084.185.186.185m2.936-2.946h2.119c.102 0 .185-.083.185-.185V5.828c0-.102-.083-.186-.185-.186H8.094c-.102 0-.185.084-.185.186v2.119c0 .102.083.185.185.185m2.935 0h2.12c.102 0 .185-.083.185-.185V5.828c0-.102-.083-.186-.185-.186h-2.12c-.102 0-.185.084-.185.186v2.119c0 .102.083.185.185.185m-5.871 0h2.12c.102 0 .185-.083.185-.185V5.828c0-.102-.083-.186-.185-.186h-2.12c-.102 0-.186.084-.186.186v2.119c0 .102.084.185.186.185m5.871-2.947h2.12c.102 0 .185-.083.185-.185V2.88c0-.102-.083-.186-.185-.186h-2.12c-.102 0-.185.084-.185.186v2.119c0 .102.083.185.185.185M22.56 12.25c-.272-3.977-3.76-6.16-3.76-6.16c-.085.503-.29 1.537-.775 2.59c.285.24.586.519.897.843c1.017 1.055 1.587 2.166 1.587 3.3c0 3.522-3.769 5.2-7.36 5.2c-.322 0-.64-.016-.954-.048c-.06.27-.145.54-.25.803c-.382.957-.962 1.718-1.679 2.23c2.72.102 5.3.528 7.385 1.558c4.034 1.998 5.048 5.753 4.9 6.22c-.105.334-.41.606-.827.606c-5.678 0-10.421-2.884-12.985-5.902c-.526-.617-.997-1.309-1.411-2.072c-.462-.85-.804-1.782-1.018-2.784c-.456-2.127-.06-4.52.82-6.52c-.66.084-1.35.127-2.062.127H3.5c-.3 0-.58-.25-.58-.58v-1.7c0-.3.28-.58.58-.58h9.637c.3 0 .58.28.58.58v.48c.176 1.488.6 2.85 1.235 4.027c.437.812.935 1.503 1.488 2.063c1.603 1.625 4.02 3.2 7.02 3.2c.456 0 .762-.303.882-.605c.319-.803.119-2.307-.74-3.793c-.943-1.632-2.22-3.037-3.611-4.152c-.166-.134-.136-.39.06-.482c1.782-.843 3.822-1.2 5.92-1.2c5.688 0 8.01 3.324 8.01 3.324z"/>
</svg>
