<svg xmlns="http://www.w3.org/2000/svg" viewBox="0 0 100 100" width="100%" height="100%">
  <path fill="#F05032" d="M91.8,42.9L57.1,8.2c-2.4-2.4-6.4-2.4-8.8,0L35.2,21.3l10.8,10.8c2.6-0.9,5.7-0.2,7.7,1.8c2,2,2.7,5.1,1.8,7.7 l10.8,10.8c2.6-0.9,5.7-0.2,7.7,1.8c2.7,2.7,2.7,7,0,9.7c-2.7,2.7-7,2.7-9.7,0c-2.1-2.1-2.7-5.2-1.8-7.8L51.3,45.4 c0.9-2.6,0.2-5.7-1.8-7.7c-2-2-5.1-2.7-7.7-1.8L31.2,25.2L8.2,48.2c-2.4,2.4-2.4,6.4,0,8.8l34.7,34.7c2.4,2.4,6.4,2.4,8.8,0 l39.9-39.9C94.2,49.3,94.2,45.4,91.8,42.9z"/>
</svg>
