<svg xmlns="http://www.w3.org/2000/svg" viewBox="0 0 100 100" width="100%" height="100%">
  <rect width="100" height="100" fill="#f7df1e"/>
  <path d="M57,75 C60,78 64,79 67,79 C72,79 74,77 74,73 C74,68 70,67 65,65 C58,62 53,59 53,50 C53,42 59,36 68,36 C75,36 80,39 83,43 L76,49 C74,46 71,44 68,44 C65,44 63,45 63,48 C63,52 66,53 71,55 C79,58 84,62 84,71 C84,80 77,86 67,86 C58,86 51,81 48,75 Z M32,37 L41,37 L41,72 C41,78 38,81 32,81 C29,81 26,80 24,78 L26,71 C28,72 29,73 31,73 C33,73 33,72 33,69 L33,37 Z" fill="#000000"/>
</svg>
